<mxfile host="Electron" modified="2023-12-20T09:12:23.905Z" agent="Mozilla/5.0 (Windows NT 10.0; Win64; x64) AppleWebKit/537.36 (KHTML, like Gecko) draw.io/21.4.0 Chrome/112.0.5615.204 Electron/24.5.1 Safari/537.36" etag="IOp1in28vz6j3JYoFG5-" version="21.4.0" type="device">
  <diagram name="中层" id="ZzfTM4kTYbD7bcUNWsJf">
    <mxGraphModel dx="1100" dy="902" grid="1" gridSize="10" guides="1" tooltips="1" connect="1" arrows="1" fold="1" page="1" pageScale="1" pageWidth="827" pageHeight="1169" math="0" shadow="0">
      <root>
        <mxCell id="0" />
        <mxCell id="1" parent="0" />
        <mxCell id="-Z13N-WNKOfcEgFJP9ol-5" value="" style="edgeStyle=orthogonalEdgeStyle;rounded=0;sketch=1;hachureGap=4;jiggle=2;curveFitting=1;orthogonalLoop=1;jettySize=auto;html=1;fontFamily=Architects Daughter;fontSource=https%3A%2F%2Ffonts.googleapis.com%2Fcss%3Ffamily%3DArchitects%2BDaughter;fontSize=16;" edge="1" parent="1" target="-Z13N-WNKOfcEgFJP9ol-4">
          <mxGeometry relative="1" as="geometry">
            <mxPoint x="395" y="290" as="sourcePoint" />
          </mxGeometry>
        </mxCell>
        <mxCell id="-Z13N-WNKOfcEgFJP9ol-14" style="edgeStyle=orthogonalEdgeStyle;sketch=1;hachureGap=4;jiggle=2;curveFitting=1;orthogonalLoop=1;jettySize=auto;html=1;exitX=0.5;exitY=0.5;exitDx=0;exitDy=0;exitPerimeter=0;entryX=0.5;entryY=0.5;entryDx=0;entryDy=0;entryPerimeter=0;fontFamily=Architects Daughter;fontSource=https%3A%2F%2Ffonts.googleapis.com%2Fcss%3Ffamily%3DArchitects%2BDaughter;fontSize=16;curved=1;" edge="1" parent="1" source="-Z13N-WNKOfcEgFJP9ol-1" target="-Z13N-WNKOfcEgFJP9ol-6">
          <mxGeometry relative="1" as="geometry">
            <Array as="points">
              <mxPoint x="250" y="230" />
              <mxPoint x="250" y="50" />
            </Array>
          </mxGeometry>
        </mxCell>
        <mxCell id="-Z13N-WNKOfcEgFJP9ol-15" value="&lt;font style=&quot;font-size: 16px;&quot;&gt;向上汇报&lt;/font&gt;" style="edgeLabel;html=1;align=center;verticalAlign=middle;resizable=0;points=[];fontSize=20;fontFamily=Architects Daughter;" vertex="1" connectable="0" parent="-Z13N-WNKOfcEgFJP9ol-14">
          <mxGeometry x="-0.0587" y="-1" relative="1" as="geometry">
            <mxPoint as="offset" />
          </mxGeometry>
        </mxCell>
        <mxCell id="-Z13N-WNKOfcEgFJP9ol-1" value="产品负责人" style="shape=umlActor;verticalLabelPosition=bottom;verticalAlign=top;html=1;outlineConnect=0;sketch=1;hachureGap=4;jiggle=2;curveFitting=1;fontFamily=Architects Daughter;fontSource=https%3A%2F%2Ffonts.googleapis.com%2Fcss%3Ffamily%3DArchitects%2BDaughter;fontSize=16;" vertex="1" parent="1">
          <mxGeometry x="380" y="200" width="30" height="60" as="geometry" />
        </mxCell>
        <mxCell id="-Z13N-WNKOfcEgFJP9ol-4" value="技术主管" style="shape=umlActor;verticalLabelPosition=bottom;verticalAlign=top;html=1;outlineConnect=0;sketch=1;hachureGap=4;jiggle=2;curveFitting=1;fontFamily=Architects Daughter;fontSource=https%3A%2F%2Ffonts.googleapis.com%2Fcss%3Ffamily%3DArchitects%2BDaughter;fontSize=16;" vertex="1" parent="1">
          <mxGeometry x="380" y="340" width="30" height="60" as="geometry" />
        </mxCell>
        <mxCell id="-Z13N-WNKOfcEgFJP9ol-6" value="老板" style="shape=umlActor;verticalLabelPosition=bottom;verticalAlign=top;html=1;outlineConnect=0;sketch=1;hachureGap=4;jiggle=2;curveFitting=1;fontFamily=Architects Daughter;fontSource=https%3A%2F%2Ffonts.googleapis.com%2Fcss%3Ffamily%3DArchitects%2BDaughter;fontSize=16;" vertex="1" parent="1">
          <mxGeometry x="380" y="20" width="30" height="60" as="geometry" />
        </mxCell>
        <mxCell id="-Z13N-WNKOfcEgFJP9ol-7" value="整体设计和子系统识别&lt;br&gt;解决技术难题" style="rounded=0;whiteSpace=wrap;html=1;sketch=1;hachureGap=4;jiggle=2;curveFitting=1;fontFamily=Architects Daughter;fontSource=https%3A%2F%2Ffonts.googleapis.com%2Fcss%3Ffamily%3DArchitects%2BDaughter;fontSize=16;" vertex="1" parent="1">
          <mxGeometry x="490" y="360" width="120" height="60" as="geometry" />
        </mxCell>
        <mxCell id="-Z13N-WNKOfcEgFJP9ol-9" value="子系统负责人" style="shape=umlActor;verticalLabelPosition=bottom;verticalAlign=top;html=1;outlineConnect=0;sketch=1;hachureGap=4;jiggle=2;curveFitting=1;fontFamily=Architects Daughter;fontSource=https%3A%2F%2Ffonts.googleapis.com%2Fcss%3Ffamily%3DArchitects%2BDaughter;fontSize=16;" vertex="1" parent="1">
          <mxGeometry x="110" y="520" width="30" height="60" as="geometry" />
        </mxCell>
        <mxCell id="-Z13N-WNKOfcEgFJP9ol-10" value="子系统负责人" style="shape=umlActor;verticalLabelPosition=bottom;verticalAlign=top;html=1;outlineConnect=0;sketch=1;hachureGap=4;jiggle=2;curveFitting=1;fontFamily=Architects Daughter;fontSource=https%3A%2F%2Ffonts.googleapis.com%2Fcss%3Ffamily%3DArchitects%2BDaughter;fontSize=16;" vertex="1" parent="1">
          <mxGeometry x="320" y="520" width="30" height="60" as="geometry" />
        </mxCell>
        <mxCell id="-Z13N-WNKOfcEgFJP9ol-11" value="子系统负责人" style="shape=umlActor;verticalLabelPosition=bottom;verticalAlign=top;html=1;outlineConnect=0;sketch=1;hachureGap=4;jiggle=2;curveFitting=1;fontFamily=Architects Daughter;fontSource=https%3A%2F%2Ffonts.googleapis.com%2Fcss%3Ffamily%3DArchitects%2BDaughter;fontSize=16;" vertex="1" parent="1">
          <mxGeometry x="530" y="520" width="30" height="60" as="geometry" />
        </mxCell>
        <mxCell id="-Z13N-WNKOfcEgFJP9ol-12" value="子系统负责人" style="shape=umlActor;verticalLabelPosition=bottom;verticalAlign=top;html=1;outlineConnect=0;sketch=1;hachureGap=4;jiggle=2;curveFitting=1;fontFamily=Architects Daughter;fontSource=https%3A%2F%2Ffonts.googleapis.com%2Fcss%3Ffamily%3DArchitects%2BDaughter;fontSize=16;" vertex="1" parent="1">
          <mxGeometry x="740" y="520" width="30" height="60" as="geometry" />
        </mxCell>
        <mxCell id="-Z13N-WNKOfcEgFJP9ol-13" value="组建团队、划分工作和制定计划表" style="rounded=0;whiteSpace=wrap;html=1;sketch=1;hachureGap=4;jiggle=2;curveFitting=1;fontFamily=Architects Daughter;fontSource=https%3A%2F%2Ffonts.googleapis.com%2Fcss%3Ffamily%3DArchitects%2BDaughter;fontSize=16;" vertex="1" parent="1">
          <mxGeometry x="490" y="210" width="120" height="60" as="geometry" />
        </mxCell>
      </root>
    </mxGraphModel>
  </diagram>
</mxfile>
